<?xml version="1.0" encoding="UTF-8"?>
<svg version="1.1" xmlns="http://www.w3.org/2000/svg" width="1024" height="1024">
    <path d="M0 0 C337.92 0 675.84 0 1024 0 C1024 337.92 1024 675.84 1024 1024 C686.08 1024 348.16 1024 0 1024 C0 686.08 0 348.16 0 0 Z " fill="#B8BABF" transform="translate(0,0)"/>
    <path d="M0 0 C9.30876996 7.71466771 16.96604682 17.03470457 18.75 29.3125 C19.59934431 40.14431087 19.95931128 50.91024904 13.75 60.3125 C12.33400857 61.73106596 10.87523528 63.10834418 9.375 64.4375 C6.56756849 67.00748004 6.56756849 67.00748004 5.25 70.4609375 C6.22080098 88.72413097 19.03758336 108.15072076 30.75 121.3125 C31.51824097 122.23385742 31.51824097 122.23385742 32.30200195 123.17382812 C36.37206384 127.99777582 40.65620963 132.00934302 45.6875 135.8125 C46.4182373 136.36784424 47.14897461 136.92318848 47.90185547 137.49536133 C59.67742501 146.19744906 72.24134872 152.7051548 87.125 152.5625 C88.32382812 152.57410156 88.32382812 152.57410156 89.546875 152.5859375 C105.99435136 152.53270942 118.2557573 144.44901371 130.75 134.3125 C131.60335938 133.62542969 132.45671875 132.93835938 133.3359375 132.23046875 C144.14055421 123.04484035 151.94713992 111.59630932 158.97265625 99.39453125 C160.16487732 97.32714131 161.4261952 95.2982072 162.75 93.3125 C162.77072233 90.54101987 162.77072233 90.54101987 162.375 87.4375 C161.10155033 73.06343686 161.0608359 60.53550494 170.0625 48.375 C177.55388407 39.62962338 185.86623912 33.23992559 197.59375 32.015625 C209.20495754 31.50833923 219.92003495 34.8009548 228.7890625 42.43359375 C237.98852052 51.24821389 242.74483306 59.83100138 243.25 72.6875 C243.35167137 84.08772832 238.684075 92.63843698 230.8125 100.875 C225.10030128 106.16182221 217.91671798 112.3125 209.75 112.3125 C209.68941406 113.32570313 209.62882812 114.33890625 209.56640625 115.3828125 C209.48193296 116.73438514 209.39728843 118.08594709 209.3125 119.4375 C209.25352539 120.43523437 209.25352539 120.43523437 209.19335938 121.453125 C208.937848 125.46268817 208.48217587 129.36244196 207.75 133.3125 C209.0184375 133.22548828 209.0184375 133.22548828 210.3125 133.13671875 C216.91742094 132.87402303 221.82548303 132.82662962 227.2265625 136.89453125 C230.37952557 139.82921226 231.63808377 141.96417586 231.99609375 146.27734375 C231.90731678 151.54659815 230.25598394 156.46998372 228.8125 161.5 C225.73045654 172.56259269 222.87884496 183.66461448 220.125 194.8125 C215.55024556 213.30160844 215.55024556 213.30160844 213.125 221.6875 C210.18378704 231.90106845 207.90754736 242.2816599 205.52734375 252.63671875 C204.38394441 257.60565033 203.21239448 262.56602749 202.00390625 267.51953125 C201.59192993 269.20937134 201.59192993 269.20937134 201.17163086 270.93334961 C200.65642933 273.03789182 200.13793399 275.14163161 199.61547852 277.24438477 C196.51683075 288.53219428 196.51683075 288.53219428 199.75 299.3125 C202.41047592 308.01951209 200.93334924 316.41205717 196.75 324.3125 C192.06876514 331.89421178 185.95439106 336.85648965 178.625 341.75 C172.88110717 345.74537142 169.0137341 349.53125167 167.625 356.5625 C167.21802852 362.48393504 170.11401359 367.19163468 172.75 372.3125 C175.85263529 381.62040586 174.23650068 392.51300964 170.3515625 401.28125 C163.79518351 413.69039659 155.15884093 421.73101945 141.898242 426.44984341 C136.46681233 427.93812119 131.14235819 427.86256071 125.54260254 427.82043457 C124.2546461 427.82667453 122.96668965 427.8329145 121.63970423 427.83934355 C118.09415347 427.85592554 114.54903752 427.84784195 111.00348592 427.83539867 C107.16836669 427.82630443 103.3333194 427.84033947 99.49821472 427.85131836 C91.99686735 427.86906174 84.49568049 427.86528232 76.99432695 427.8536678 C70.89531859 427.84461723 64.79635507 427.84341648 58.69734192 427.84776306 C57.82776947 427.84837599 56.95819702 427.84898893 56.06227389 427.84962043 C54.2954988 427.85089939 52.52872371 427.85219625 50.76194865 427.8535108 C34.21286816 427.86490435 17.66387645 427.85182215 1.11481053 427.83030933 C-13.07080226 427.81243946 -27.2562841 427.81554391 -41.44189453 427.83398438 C-57.93362472 427.85541276 -74.4252772 427.86380582 -90.91701937 427.85153532 C-92.67712687 427.85026119 -94.43723439 427.8490037 -96.19734192 427.84776306 C-97.06324396 427.84714596 -97.92914599 427.84652886 -98.82128748 427.84589306 C-104.90970122 427.84244606 -110.99806548 427.84825445 -117.08647156 427.85768127 C-124.51091523 427.86892454 -131.93518984 427.86581246 -139.35961425 427.8445583 C-143.14434602 427.83407905 -146.92879638 427.82987223 -150.71352577 427.84315491 C-154.82346073 427.85736027 -158.93269129 427.8403465 -163.04260254 427.82043457 C-164.82175875 427.8338189 -164.82175875 427.8338189 -166.63685751 427.84747362 C-177.19878994 427.74843313 -185.75691116 425.14259063 -194 418.5 C-194.8209314 417.83871094 -194.8209314 417.83871094 -195.65844727 417.1640625 C-204.35192609 410.07177592 -211.78701114 402.28653777 -215.25 391.3125 C-215.49173101 388.51291765 -215.63053449 385.8598773 -215.625 383.0625 C-215.62483887 382.30759277 -215.62467773 381.55268555 -215.62451172 380.77490234 C-215.4732239 373.38090931 -213.30978126 368.40217189 -209.25 362.3125 C-208.92071433 357.29089357 -208.72633497 352.77744582 -211.25 348.3125 C-214.43511847 346.04817033 -217.8428895 344.21879676 -221.25 342.3125 C-228.80183905 337.12986535 -234.25186939 328.55687875 -236.8203125 319.7734375 C-237.80910267 314.1103665 -238.58206092 307.25553713 -236.16796875 301.921875 C-234.11632988 296.08998239 -236.57249001 289.75624377 -238.4375 284.125 C-238.89413277 282.71295096 -239.34844519 281.30015006 -239.80078125 279.88671875 C-240.03877441 279.14341309 -240.27676758 278.40010742 -240.52197266 277.63427734 C-241.79068582 273.58818002 -242.9616204 269.51493479 -244.125 265.4375 C-244.37193604 264.57237793 -244.61887207 263.70725586 -244.87329102 262.81591797 C-247.25056028 254.41870404 -249.50311048 245.98776087 -251.71435547 237.54541016 C-253.37014327 231.29772771 -255.25305198 225.17975622 -257.33496094 219.0612793 C-258.55114117 215.4078713 -259.57315794 211.71989031 -260.5625 208 C-263.30004102 197.94128042 -266.34193702 187.98037854 -269.41552734 178.02001953 C-270.19448549 175.49262168 -270.96716081 172.96339158 -271.73828125 170.43359375 C-272.17934796 168.99729152 -272.62073088 167.56108634 -273.0625 166.125 C-273.44019531 164.89394531 -273.81789063 163.66289062 -274.20703125 162.39453125 C-275.11197396 159.4230192 -275.11197396 159.4230192 -276.36328125 157.2890625 C-277.63231206 154.46029778 -277.58932734 151.96068533 -277.625 148.875 C-277.65335937 147.76253906 -277.68171875 146.65007812 -277.7109375 145.50390625 C-277.15473885 141.65293762 -275.93027723 140.07622909 -273.25 137.3125 C-267.804061 133.5003427 -261.684348 133.61443542 -255.25 133.3125 C-254.92 129.6825 -254.59 126.0525 -254.25 122.3125 C-255.9 121.6525 -257.55 120.9925 -259.25 120.3125 C-273.51781874 113.92065212 -282.6891795 106.39152045 -288.9140625 91.59765625 C-292.279023 82.16486188 -292.16348435 69.34873054 -288.04516602 60.19995117 C-286.60943339 57.45000322 -284.99526808 54.8753071 -283.25 52.3125 C-282.53263672 51.24322266 -282.53263672 51.24322266 -281.80078125 50.15234375 C-275.97667406 42.55931003 -267.45759764 37.54063997 -258.25 35.3125 C-255.06875518 34.90879374 -251.95414308 34.83473308 -248.75 34.875 C-247.91702393 34.88112305 -247.08404785 34.88724609 -246.22583008 34.89355469 C-240.16372831 35.04824567 -235.37634383 35.90272232 -230.25 39.3125 C-229.1775 39.9725 -228.105 40.6325 -227 41.3125 C-222.27142802 44.75146144 -218.68646482 47.67511599 -215.5625 52.6875 C-214.98113281 53.60273438 -214.39976562 54.51796875 -213.80078125 55.4609375 C-210.73839453 61.09202643 -210.16637278 65.32143596 -210.3125 71.6875 C-209.77821346 94.56979097 -191.89992677 119.22062648 -175.99609375 134.68945312 C-169.53886437 140.69164285 -162.42996439 145.93419186 -154.25 149.3125 C-153.58355469 149.59738281 -152.91710937 149.88226563 -152.23046875 150.17578125 C-138.81228433 155.58923615 -122.44673458 154.90209435 -109.25 149.3125 C-100.19944793 145.18305189 -92.60235706 139.98601727 -85.25 133.3125 C-84.76144531 132.87309082 -84.27289063 132.43368164 -83.76953125 131.98095703 C-75.39127399 124.3538353 -69.13673005 115.95940036 -63.25 106.3125 C-62.73695313 105.50039063 -62.22390625 104.68828125 -61.6953125 103.8515625 C-57.11178806 96.19337571 -53.74973661 87.10507346 -52.25 78.3125 C-52.11335937 77.62929688 -51.97671875 76.94609375 -51.8359375 76.2421875 C-51.42899149 72.27823192 -51.74643006 70.04267641 -54.046875 66.70703125 C-55.63101002 64.86507559 -57.23340122 63.03869894 -58.8515625 61.2265625 C-67.48587288 50.73601601 -69.43236708 39.45384969 -68.25 26.3125 C-65.78885427 14.73808322 -57.89273818 5.04020128 -48.53515625 -1.97265625 C-33.45713782 -11.30328883 -14.33874208 -9.90728046 0 0 Z " fill="#060506" transform="translate(540.25,296.6875)"/>
    <path d="M0 0 C6.18693852 3.92758942 11.9706497 9.94982319 13.83984375 17.16796875 C14.57954239 24.42891865 15.15083483 32.87816209 10.83984375 39.16796875 C8.87863867 41.11313125 6.87092697 42.84616933 4.6796875 44.52734375 C1.73102145 47.15672749 0.96736175 49.23610646 0.43359375 53.13671875 C-0.28191939 80.08771352 15.01656419 105.04129294 32.94702148 124.11572266 C34.24027176 125.47064361 35.53984427 126.81952208 36.83984375 128.16796875 C37.443125 128.8228125 38.04640625 129.47765625 38.66796875 130.15234375 C53.85173172 146.22059776 76.295465 158.48026737 98.46484375 159.72729492 C122.68461476 160.39702338 144.31986623 147.42272002 161.6640625 131.58984375 C174.64824753 118.94368498 193.83775061 97.17407878 194.97265625 77.9140625 C194.97007812 77.15222656 194.9675 76.39039063 194.96484375 75.60546875 C194.96871094 74.45884766 194.96871094 74.45884766 194.97265625 73.2890625 C194.91891759 70.9779838 194.91891759 70.9779838 193.83984375 68.16796875 C193.19974325 60.4972562 192.91953671 53.43517548 197.83984375 47.16796875 C203.1970403 41.42323032 207.77613687 38.49568705 215.71484375 37.85546875 C222.48524092 38.10002682 227.1957058 40.24316762 232.15234375 44.85546875 C237.31444734 50.41309698 239.59688524 56.2416819 239.3203125 63.8671875 C238.06987094 69.85507433 233.49132991 75.362831 228.7421875 79.06640625 C226.19394344 80.54198084 223.528969 81.49890042 220.77734375 82.54296875 C215.1467852 84.8299487 212.24134372 86.53945321 209.83984375 92.16796875 C205.82667884 102.62331942 203.52672265 113.54972598 201.07275391 124.45043945 C199.12591705 133.06991271 196.89744093 141.56415829 194.44433594 150.05126953 C193.82203924 152.23031331 193.22237994 154.41450204 192.62890625 156.6015625 C190.55072325 164.24565447 188.34230277 171.81865386 185.90234375 179.35546875 C182.97163731 188.43016829 180.57419827 197.61445962 178.21484375 206.8515625 C177.12504844 211.10820119 175.953829 215.32751502 174.71484375 219.54296875 C173.2711591 224.49189596 172.04958189 229.45739535 170.90234375 234.48046875 C169.49809124 240.52699856 168.03562165 246.55385493 166.40234375 252.54296875 C166.13079468 253.62251831 166.13079468 253.62251831 165.85375977 254.72387695 C164.93255684 257.99031719 164.21295104 259.87162215 161.5234375 262.0078125 C160.63785156 262.39066406 159.75226563 262.77351563 158.83984375 263.16796875 C157.96328125 263.55339844 157.08671875 263.93882812 156.18359375 264.3359375 C147.65066787 267.39513208 138.18773303 269.46430378 129.52734375 265.66796875 C123.42735899 262.02848204 118.89088833 256.44163297 114.40234375 251.04296875 C107.08955413 242.58600116 96.25749646 236.90360889 85.11328125 235.9296875 C70.80721128 235.56335956 60.00088073 242.55009755 48.18359375 249.796875 C41.48504375 253.61374359 35.46123049 254.06401026 27.83984375 253.16796875 C25.02102094 252.31225468 23.30612346 251.60289512 20.83984375 250.16796875 C18.69767004 248.97387966 16.5514193 247.78709104 14.40234375 246.60546875 C13.35175781 246.00605469 12.30117188 245.40664063 11.21875 244.7890625 C1.59444557 240.17162164 -10.26843056 239.33280065 -20.578125 242.078125 C-26.39533628 244.41855541 -31.66743966 247.5762953 -36.984375 250.875 C-41.98311772 253.84552754 -46.39111373 254.744873 -52.16015625 254.16796875 C-58.36131407 252.38004368 -63.90947829 249.25138926 -69.53515625 246.16796875 C-81.33475112 239.77178881 -92.55054959 235.81800345 -106.140625 238.828125 C-115.0693498 241.73720177 -121.99252015 247.24962194 -128.98266602 253.33422852 C-141.68052262 264.3762447 -152.51166606 266.89613333 -169.16015625 266.16796875 C-170.10632813 266.131875 -171.0525 266.09578125 -172.02734375 266.05859375 C-174.80730074 265.59058752 -176.09226199 265.10140352 -178.16015625 263.16796875 C-180.2252299 258.86671534 -181.32952275 254.39669421 -182.47509766 249.78955078 C-183.77346267 244.82096791 -185.37267529 239.94165266 -186.91015625 235.04296875 C-190.09948403 224.71182482 -193.20552887 214.3562991 -196.2961731 203.99533081 C-198.9976215 194.94629404 -201.80200687 185.93754575 -204.70507812 176.95141602 C-206.68237701 170.78848881 -208.48257335 164.58910994 -210.22265625 158.35546875 C-212.0651937 151.78871181 -214.03248733 145.29401913 -216.28515625 138.85546875 C-216.51468994 138.19248779 -216.74422363 137.52950684 -216.98071289 136.84643555 C-218.19302224 133.46531985 -219.5722142 130.34862 -221.28125 127.1875 C-223.34198347 123.1738508 -223.80920889 119.62161756 -224.09765625 115.16796875 C-224.71813103 108.86949587 -225.54714364 103.76924342 -230.16015625 99.16796875 C-234.17209254 95.95127151 -238.75394518 93.86130901 -243.34765625 91.60546875 C-251.58881375 87.52269347 -255.6283182 82.59333599 -259.47265625 74.35546875 C-261.18712072 66.40658803 -260.85546532 59.71649885 -256.86328125 52.53515625 C-253.58287543 47.97569311 -249.22218777 43.69898451 -244.16015625 41.16796875 C-227.87815703 39.86391847 -227.87815703 39.86391847 -221.640625 44.73828125 C-217.54532283 48.69311131 -215.4294679 51.6669173 -214.9921875 57.3515625 C-214.95295917 61.87851129 -215.40588781 64.95772449 -217.16015625 69.16796875 C-216.74269464 73.52149693 -214.98495992 76.3113182 -212.59765625 79.91796875 C-209.37138691 84.91506933 -206.80776896 89.98046997 -204.41015625 95.41796875 C-197.67773234 110.32126791 -187.49965738 122.54498009 -176.16015625 134.16796875 C-175.2784375 135.15990234 -175.2784375 135.15990234 -174.37890625 136.171875 C-161.50277024 150.32905515 -141.17488676 159.19378953 -122.3671875 160.4140625 C-99.0805479 160.81760264 -79.6920107 152.22341358 -62.16015625 137.16796875 C-61.32613281 136.46800781 -60.49210938 135.76804687 -59.6328125 135.046875 C-40.52133928 118.52678798 -22.64026446 89.9052269 -20.75390625 63.984375 C-20.48196067 56.48458517 -20.27765098 50.24252067 -25.23046875 44.1640625 C-25.86726562 43.50535156 -26.5040625 42.84664063 -27.16015625 42.16796875 C-27.94132813 41.35457031 -28.7225 40.54117188 -29.52734375 39.703125 C-31.09609343 38.11683339 -32.68702128 36.55200146 -34.3046875 35.015625 C-37.51034342 31.82346657 -37.34859188 29.4653425 -37.41015625 25.04296875 C-37.30115303 16.03533885 -35.32069727 10.5100786 -29.09375 3.93359375 C-21.30593376 -3.17770512 -9.65895423 -4.3495925 0 0 Z " fill="#F9DFA9" transform="translate(527.16015625,307.83203125)"/>
    <path d="M0 0 C6.94469206 4.32405355 12.47931374 9.7881691 17.375 16.3125 C21.09615416 21.12240868 24.71517346 23.75219408 30.3125 26.0625 C31.06015625 26.37960937 31.8078125 26.69671875 32.578125 27.0234375 C42.96192371 30.7712324 54.16697291 29.97161436 64.53125 26.62109375 C70.58299226 25.40564551 76.38428381 27.52219098 82.125 29.375 C83.16950317 29.70939087 83.16950317 29.70939087 84.23510742 30.05053711 C100.64843871 35.37342016 100.64843871 35.37342016 103.3125 40.0625 C103.91515993 43.94362998 103.4941883 47.32566988 102.3125 51.0625 C98.63354622 55.82397779 93.62758884 58.89752333 88.625 62.125 C80.45571088 67.43361471 78.08915284 72.62086789 74.3125 82.0625 C-39.8675 82.0625 -154.0475 82.0625 -271.6875 82.0625 C-273.6675 78.4325 -275.6475 74.8025 -277.6875 71.0625 C-281.69479531 66.9641298 -286.41069707 64.39496487 -291.41796875 61.6875 C-294.16777502 59.71861978 -295.29749257 58.14353558 -296.6875 55.0625 C-297.12109375 51.90625 -297.12109375 51.90625 -297.125 48.5625 C-297.14433594 47.4590625 -297.16367187 46.355625 -297.18359375 45.21875 C-296.5498547 41.18677241 -295.67337295 39.86344728 -292.6875 37.0625 C-279.03604423 27.95257514 -265.51694313 26.32273159 -249.65087891 26.89404297 C-239.84330184 27.21904083 -232.47502158 26.58143916 -223.6875 22.0625 C-222.54667969 21.50369141 -222.54667969 21.50369141 -221.3828125 20.93359375 C-216.41676485 18.16072279 -212.43937323 14.19116336 -208.28515625 10.3515625 C-201.61617279 4.47483422 -195.54141723 -0.41156443 -186.33984375 -0.27734375 C-178.88587684 0.67773007 -172.29604548 4.54031369 -166.125 8.625 C-155.19749709 15.76450975 -144.46294856 18.07719611 -131.484375 15.40234375 C-124.90312487 13.41246315 -119.19758151 10.27422426 -113.37890625 6.6484375 C-106.88133973 2.81968277 -101.15249153 1.82525446 -93.6875 3.0625 C-88.75734584 4.89112534 -84.17310802 7.52651339 -79.56689453 10.04052734 C-68.83415694 15.87674968 -58.84181456 18.44806089 -46.73828125 15.05859375 C-36.44949897 11.72060116 -27.64518538 5.99333658 -18.6875 0.0625 C-13.41673021 -2.5728849 -5.52279282 -1.40409987 0 0 Z " fill="#F8DFA9" transform="translate(618.6875,561.9375)"/>
    <path d="M0 0 C1.15577559 -0.01228109 2.31155118 -0.02456217 3.50235027 -0.03721541 C4.76770628 -0.03033888 6.03306229 -0.02346236 7.33676243 -0.01637745 C8.69799507 -0.02313538 10.05922002 -0.03162629 11.42043215 -0.04170066 C15.16017886 -0.06423692 18.89955542 -0.06176321 22.63934886 -0.05513132 C26.67286415 -0.05225927 30.70627548 -0.072303 34.73974705 -0.08928394 C42.64127158 -0.11865667 50.54266844 -0.12593307 58.44424193 -0.12470844 C64.865713 -0.12387649 71.28714365 -0.12973103 77.70860577 -0.14033413 C97.89373247 -0.17301849 118.07873476 -0.18199299 138.26388407 -0.17324439 C154.19316212 -0.16726112 170.12213252 -0.19766535 186.05133384 -0.24486711 C202.40282586 -0.2929428 218.75416966 -0.31504526 235.10573393 -0.30955631 C244.28780127 -0.3069778 253.46957386 -0.31500392 262.65157986 -0.35062695 C270.46798717 -0.38071277 278.28394631 -0.38654306 286.10037725 -0.36081793 C290.08920921 -0.3483758 294.07719825 -0.34725471 298.06596088 -0.37652683 C301.71748735 -0.40303417 305.3674842 -0.39724682 309.01895744 -0.36569688 C310.9658382 -0.35724027 312.91277434 -0.38325356 314.85948318 -0.41047305 C323.13871866 -0.29322888 323.13871866 -0.29322888 326.32637227 2.0204004 C327.87653197 3.78356385 329.08287431 5.47815744 330.24778843 7.5117445 C330.86653843 8.5223695 331.48528843 9.5329945 332.12278843 10.5742445 C333.24778843 13.5117445 333.24778843 13.5117445 333.24778843 19.5117445 C217.41778843 19.5117445 101.58778843 19.5117445 -17.75221157 19.5117445 C-16.61713779 12.70130182 -16.61713779 12.70130182 -14.00221157 8.8867445 C-13.51236782 8.15197887 -13.02252407 7.41721325 -12.51783657 6.660182 C-8.81148119 2.15023629 -5.91050821 0.01348638 0 0 Z " fill="#F3DBAB" transform="translate(361.75221157073975,659.4882555007935)"/>
    <path d="M0 0 C15.02082028 -0.03392823 30.04164583 -0.05196168 45.0625 -0.0625 C46.27312355 -0.06335602 47.4837471 -0.06421204 48.73105621 -0.06509399 C111.44634458 -0.10379861 174.16055566 0.20746787 236.875 0.5 C238.15707919 0.50597372 239.43915837 0.51194743 240.76008844 0.51810217 C274.17341597 0.67388568 307.58671921 0.83450137 341 1 C339.55608147 4.88878471 338.55983283 6.81030955 335.0625 9.125 C334.02802734 9.84042969 334.02802734 9.84042969 332.97265625 10.5703125 C324.39339654 14.6964742 315.8263268 15.43806624 306.43125916 15.38768005 C305.21201754 15.39306559 303.99277592 15.39845113 302.73658758 15.40399987 C299.38290329 15.41575892 296.02972111 15.41424276 292.6760577 15.40683305 C289.04750939 15.40207794 285.41901293 15.41463165 281.79048157 15.42485046 C274.69456513 15.44199668 267.59873741 15.44288739 260.50280564 15.43763756 C254.73369381 15.43358772 248.9646081 15.43504906 243.19549751 15.44038582 C242.37281748 15.44113424 241.55013745 15.44188266 240.70252772 15.44265376 C239.0310159 15.44418531 237.35950409 15.44572366 235.68799228 15.44726873 C220.03408764 15.46097802 204.38023306 15.45556658 188.72632957 15.44408352 C174.41684525 15.43414725 160.10749017 15.44710139 145.79802578 15.47101771 C131.08711437 15.49541892 116.37626313 15.50501441 101.6653319 15.49836498 C93.41333891 15.49487575 85.16144534 15.49708559 76.9094677 15.51461601 C69.88684448 15.52935055 62.86439076 15.52995685 55.84177082 15.5125451 C52.26170327 15.504044 48.68193836 15.50186354 45.10188675 15.51719666 C41.21502271 15.53363738 37.32862355 15.51887136 33.4417572 15.50120544 C31.75745091 15.51561295 31.75745091 15.51561295 30.03911823 15.53031152 C18.97236017 15.42698715 10.33027595 11.86677369 2.125 4.375 C0 2 0 2 0 0 Z " fill="#DCDDE3" transform="translate(350,694)"/>
    <path d="M0 0 C3.3 0 6.6 0 10 0 C13.60173141 6.43166323 15.53526888 12.91354238 17.45263672 20.01123047 C18.41888406 23.52195787 19.46374292 27.00942911 20.5 30.5 C22.04928355 35.74223358 23.57232673 40.99056492 25.0625 46.25 C26.61376534 51.70746361 28.26241097 57.12873014 29.94750977 62.54614258 C30.95503047 65.85242776 31.90752238 69.16900184 32.84375 72.49609375 C34.94829549 79.88830979 37.20511501 87.22748363 39.5 94.5625 C40.63222332 98.1929567 41.76402736 101.82353751 42.89355469 105.45483398 C43.6384529 107.84156544 44.38921939 110.22647244 45.14550781 112.60961914 C45.50483398 113.75164795 45.86416016 114.89367676 46.234375 116.0703125 C46.55631836 117.08496582 46.87826172 118.09961914 47.20996094 119.14501953 C48.3064585 123.1074554 48.722301 126.90393975 49 131 C47.54462432 131.83848804 46.08559627 132.67063934 44.625 133.5 C43.81289063 133.9640625 43.00078125 134.428125 42.1640625 134.90625 C40 136 40 136 38 136 C34.15768839 124.81999841 30.75679721 113.54982504 27.5 102.1875 C27.03541934 100.57739802 26.57057624 98.96737175 26.10546875 97.35742188 C23.57170576 88.56981808 21.08392305 79.77054635 18.66271973 70.95121765 C17.55799264 66.94151815 16.38935795 62.96220788 15.125 59 C12.75576747 51.43374129 10.75961714 43.76794143 8.72290039 36.10668945 C7.27144527 30.66324411 5.79428329 25.2320729 4.21484375 19.82421875 C3.7969458 18.39335937 3.7969458 18.39335937 3.37060547 16.93359375 C2.8455357 15.14930833 2.31491789 13.36664284 1.77783203 11.5859375 C1.54306152 10.78800781 1.30829102 9.99007813 1.06640625 9.16796875 C0.85959229 8.47985107 0.65277832 7.7917334 0.43969727 7.08276367 C0 5 0 5 0 0 Z " fill="#DDDDE0" transform="translate(283,447)"/>
    <path d="M0 0 C3.16996815 2.1133121 3.86303202 3.32885692 4.625 7.0625 C3.15327416 16.3343728 -2.23062388 23.11261441 -9.26953125 29.0546875 C-19.94752369 36.66218426 -30.32130624 37.67122496 -43 37 C-53.52586069 35.22564063 -62.21453986 27.88451354 -69 20 C-72.24410264 15.23522425 -72.93060599 10.63711907 -72 5 C-70.5 2.4375 -70.5 2.4375 -68 1 C-64.08308572 0.3578829 -61.64671567 0.06756484 -58.171875 2.03515625 C-54.69544881 4.8460504 -52.09954457 8.11475597 -49.4375 11.6875 C-46.14919129 16.01844318 -43.50778819 18.48082072 -37.94140625 19.3046875 C-32.02956095 19.6530458 -26.81997267 18.51866566 -22 15 C-19.74906172 12.32726428 -17.8109018 9.59473614 -15.921875 6.65625 C-11.36140193 0.35315714 -7.55183031 -1.69265162 0 0 Z " fill="#070505" transform="translate(553,597)"/>
    <path d="M0 0 C-0.65328513 5.0302955 -1.57723171 9.93803312 -2.75 14.875 C-3.0133313 15.99225464 -3.0133313 15.99225464 -3.28198242 17.13208008 C-4.46295144 22.03736538 -5.8285996 26.86527556 -7.3125 31.6875 C-9.67406695 39.41894084 -11.50913108 47.24675303 -13.3125 55.125 C-15.78773382 65.93721541 -18.39924855 76.70154954 -21.1875 87.4375 C-21.50823486 88.67322754 -21.82896973 89.90895508 -22.15942383 91.18212891 C-23.44488347 96.1096689 -24.73612885 101.03525705 -26.06811523 105.95043945 C-27.8069946 112.37675427 -29.47085479 118.76512026 -30.6875 125.3125 C-31.9015025 131.80300501 -31.9015025 131.80300501 -33 134 C-37.571279 133.45144652 -41.67435795 132.58255197 -46 131 C-45.56563228 124.59307617 -44.20489808 119.02490206 -42.2421875 112.921875 C-38.92106506 102.57131607 -35.81634875 92.05980938 -33.5 81.4375 C-32.12546099 75.18374944 -30.27253714 69.1124878 -28.40234375 62.99365234 C-26.49053862 56.71117017 -24.71179366 50.40220592 -23 44.0625 C-22.7520166 43.15556396 -22.5040332 42.24862793 -22.24853516 41.31420898 C-20.968595 36.62677079 -19.72619379 31.93350013 -18.53515625 27.22265625 C-18.04468634 25.35666157 -17.55381508 23.49077233 -17.0625 21.625 C-16.85818359 20.77558838 -16.65386719 19.92617676 -16.44335938 19.05102539 C-14.71640607 12.6242737 -11.64859763 8.68381952 -7 4 C-6.2575 3.175 -5.515 2.35 -4.75 1.5 C-3 0 -3 0 0 0 Z " fill="#DADBDF" transform="translate(753,445)"/>
    <path d="M0 0 C0.33 0.66 0.66 1.32 1 2 C-0.04714924 3.32477959 -1.11344669 4.63443746 -2.1875 5.9375 C-2.77917969 6.66839844 -3.37085938 7.39929688 -3.98046875 8.15234375 C-6.32505203 10.29738803 -7.88391498 10.66094412 -11 11 C-7.33333333 7.33333333 -3.66666667 3.66666667 0 0 Z " fill="#E1CBA2" transform="translate(691,437)"/>
    <path d="M0 0 C-1.35236577 2.93879484 -2.89942659 5.29232911 -5 7.75 C-5.515625 8.36359375 -6.03125 8.9771875 -6.5625 9.609375 C-8 11 -8 11 -10 11 C-8.73396788 6.69549079 -5.08358566 0 0 0 Z " fill="#E5D0A6" transform="translate(733,349)"/>
    <path d="M0 0 C1.125 1.75 1.125 1.75 2 4 C1.1875 6.125 1.1875 6.125 0 8 C-0.33 8.66 -0.66 9.32 -1 10 C-1.66 10 -2.32 10 -3 10 C-2.25 3.375 -2.25 3.375 0 0 Z " fill="#ECD5A7" transform="translate(348,668)"/>
    <path d="M0 0 C0.66 0.33 1.32 0.66 2 1 C-0.88406243 4.40843742 -2.3708265 5.86591384 -6.8125 6.8125 C-8.3903125 6.9053125 -8.3903125 6.9053125 -10 7 C-6.76478258 4.51137122 -3.40739705 2.24578442 0 0 Z " fill="#DCC8A5" transform="translate(453,454)"/>
    <path d="M0 0 C0 3 0 3 -1.3125 4.60546875 C-1.869375 5.12753906 -2.42625 5.64960937 -3 6.1875 C-3.556875 6.71730469 -4.11375 7.24710938 -4.6875 7.79296875 C-5.120625 8.19128906 -5.55375 8.58960938 -6 9 C-6.66 8.67 -7.32 8.34 -8 8 C-7.04578192 6.85073734 -6.08647955 5.70569459 -5.125 4.5625 C-4.59132813 3.92441406 -4.05765625 3.28632812 -3.5078125 2.62890625 C-2 1 -2 1 0 0 Z " fill="#AEAFB6" transform="translate(718,638)"/>
    <path d="M0 0 C0 0.66 0 1.32 0 2 C-4.29385993 5.4887612 -7.71870895 5.26854022 -13 5 C-10.54278328 3.36185552 -8.65432189 2.38047801 -5.9375 1.375 C-5.24527344 1.11460937 -4.55304688 0.85421875 -3.83984375 0.5859375 C-2 0 -2 0 0 0 Z " fill="#C9B897" transform="translate(443,461)"/>
    <path d="M0 0 C0.66 0 1.32 0 2 0 C0.47291037 3.43595166 -1.59927045 6.11912454 -4 9 C-4.99 8.67 -5.98 8.34 -7 8 C-5.88200014 6.66079162 -4.75538103 5.32877444 -3.625 4 C-2.68527344 2.88625 -2.68527344 2.88625 -1.7265625 1.75 C-1.15679688 1.1725 -0.58703125 0.595 0 0 Z " fill="#DBC7A1" transform="translate(704,422)"/>
    <path d="M0 0 C0.99 0.33 1.98 0.66 3 1 C3 2.65 3 4.3 3 6 C0.525 5.01 0.525 5.01 -2 4 C-2 3.01 -2 2.02 -2 1 C-1.34 0.67 -0.68 0.34 0 0 Z " fill="#E9D2AA" transform="translate(537,547)"/>
    <path d="M0 0 C0.66 0.33 1.32 0.66 2 1 C0.47005208 2.23697917 -1.05989583 3.47395833 -2.58984375 4.7109375 C-4.13266437 5.9666391 -4.13266437 5.9666391 -5 8 C-6.32 7.34 -7.64 6.68 -9 6 C-6.03 4.02 -3.06 2.04 0 0 Z " fill="#26211E" transform="translate(717,616)"/>
    <path d="M0 0 C0.99 0.33 1.98 0.66 3 1 C2.8125 2.875 2.8125 2.875 2 5 C-0.5625 6.25 -0.5625 6.25 -3 7 C-3 6.34 -3 5.68 -3 5 C-2.34 5 -1.68 5 -1 5 C-1.33 3.68 -1.66 2.36 -2 1 C-1.34 0.67 -0.68 0.34 0 0 Z " fill="#E9D29C" transform="translate(661,459)"/>
    <path d="M0 0 C0.33 0.66 0.66 1.32 1 2 C-0.65 3.98 -2.3 5.96 -4 8 C-4.66 7.67 -5.32 7.34 -6 7 C-4.02 4.69 -2.04 2.38 0 0 Z " fill="#DDCAA4" transform="translate(277,353)"/>
    <path d="M0 0 C0.33 1.32 0.66 2.64 1 4 C-0.9375 6.25 -0.9375 6.25 -3 8 C-3.66 7.67 -4.32 7.34 -5 7 C-3.35 4.69 -1.7 2.38 0 0 Z " fill="#DDC7A1" transform="translate(486,422)"/>
    <path d="M0 0 C0.33 0 0.66 0 1 0 C1 1.98 1 3.96 1 6 C-0.98 6.99 -0.98 6.99 -3 8 C-1.125 2.25 -1.125 2.25 0 0 Z " fill="#D8C399" transform="translate(498,401)"/>
    <path d="M0 0 C0.66 0 1.32 0 2 0 C1.43628586 3.26954202 0.50037734 4.82575883 -2 7 C-2.33 6.34 -2.66 5.68 -3 5 C-1.6875 2.375 -1.6875 2.375 0 0 Z " fill="#D9C6A2" transform="translate(494,317)"/>
</svg>